<svg width="100" height="100" viewBox="0 0 100 100" fill="none" xmlns="http://www.w3.org/2000/svg">
<g clip-path="url(#clip0_183_254)">
<mask id="mask0_183_254" style="mask-type:luminance" maskUnits="userSpaceOnUse" x="0" y="0" width="100" height="100">
<path d="M100 0H0V100H100V0Z" fill="white"/>
</mask>
<g mask="url(#mask0_183_254)">
<path fill-rule="evenodd" clip-rule="evenodd" d="M0 24.5H13.75H14V24.4972C19.8216 24.3643 24.5 19.6035 24.5 13.75V0H27.5V14C27.5 19.799 32.201 24.5 38 24.5C43.799 24.5 48.5 19.799 48.5 14V0H51.5V14C51.5 19.799 56.201 24.5 62 24.5C67.799 24.5 72.5 19.799 72.5 14V0H76V14C76 19.799 80.701 24.5 86.5 24.5H100V27.5H86C80.201 27.5 75.5 32.201 75.5 38C75.5 43.799 80.201 48.5 86 48.5H100V51.5H86C80.201 51.5 75.5 56.201 75.5 62C75.5 67.799 80.201 72.5 86 72.5H100V75.5H86.5C80.701 75.5 76 80.201 76 86V86.5V100H72.5V86C72.5 80.201 67.799 75.5 62 75.5C56.201 75.5 51.5 80.201 51.5 86V100H48.5V86C48.5 80.201 43.799 75.5 38 75.5C32.201 75.5 27.5 80.201 27.5 86V100H24.5V86.25C24.5 80.3965 19.8216 75.6355 14 75.503V75.5H13.75H0V72.5H14C19.799 72.5 24.5 67.799 24.5 62C24.5 56.201 19.799 51.5 14 51.5H0V48.5H14C19.799 48.5 24.5 43.799 24.5 38C24.5 32.201 19.799 27.5 14 27.5H0V24.5ZM38 48.5C43.799 48.5 48.5 43.799 48.5 38C48.5 32.201 43.799 27.5 38 27.5C32.201 27.5 27.5 32.201 27.5 38C27.5 43.799 32.201 48.5 38 48.5ZM62 48.5C67.799 48.5 72.5 43.799 72.5 38C72.5 32.201 67.799 27.5 62 27.5C56.201 27.5 51.5 32.201 51.5 38C51.5 43.799 56.201 48.5 62 48.5ZM48.5 62C48.5 67.799 43.799 72.5 38 72.5C32.201 72.5 27.5 67.799 27.5 62C27.5 56.201 32.201 51.5 38 51.5C43.799 51.5 48.5 56.201 48.5 62ZM62 72.5C67.799 72.5 72.5 67.799 72.5 62C72.5 56.201 67.799 51.5 62 51.5C56.201 51.5 51.5 56.201 51.5 62C51.5 67.799 56.201 72.5 62 72.5Z" fill="url(#paint0_linear_183_254)"/>
</g>
</g>
<defs>
<linearGradient id="paint0_linear_183_254" x1="0" y1="0" x2="100" y2="0" gradientUnits="userSpaceOnUse">
<stop stop-color="#FF941B"/>
<stop offset="0.48" stop-color="#B791EC"/>
<stop offset="1" stop-color="#1D07C8"/>
</linearGradient>
<clipPath id="clip0_183_254">
<rect width="100" height="100" fill="white"/>
</clipPath>
</defs>
</svg>
