<svg width="63" height="13" viewBox="0 0 63 13" fill="none" xmlns="http://www.w3.org/2000/svg">
<g clip-path="url(#clip0_172_46)">
<path d="M27.9192 4.77576C28.7198 4.75386 29.5276 4.69689 30.3282 4.71005C33.3606 4.76263 36.3931 4.83712 39.4255 4.89848C39.5814 4.90287 39.7373 4.85029 39.8931 4.81961L39.879 4.81522C41.714 4.85467 43.542 4.91603 45.3771 4.92916C49.6211 4.95984 53.8652 5.0212 58.0807 5.39811C58.7395 5.45508 59.8661 5.47698 59.8025 6.46742C59.7389 7.49731 58.9665 8.08898 57.8116 8.03636C55.0201 7.9049 52.2284 7.62442 49.4439 7.76466C45.37 7.97064 41.3173 7.76905 37.2575 7.76905C33.6086 7.76466 29.9668 7.65949 26.318 7.66823C22.8958 7.67262 19.4595 7.84792 16.0374 7.79095C13.0828 7.74275 10.1425 7.44473 7.18801 7.30888C6.49367 7.2782 5.75681 7.21245 5.08375 7.58058L5.09793 7.59374C4.31148 7.12919 3.34078 7.96187 2.58976 7.28259C2.32052 7.26068 2.04418 7.19055 1.77495 7.22123C0.556299 7.37463 0.244538 7.01085 0.697988 5.88457C0.797181 5.63477 0.705112 5.31045 1.00269 5.14392L1.02396 5.16144L1.01687 5.14392C1.86709 4.39012 2.86604 4.77141 3.78711 4.76702C8.30034 4.75386 12.8136 4.80644 17.3339 4.83712C20.1042 4.85467 22.8746 4.93794 25.6449 4.84151C26.403 4.81522 27.1682 4.67937 27.9334 4.77576H27.9192Z" fill="#27187D"/>
<path d="M61.1849 4.98216C61.7371 5.28016 62.1622 5.5957 62.3256 6.01644L62.3965 6.27063C62.4669 6.67821 62.3466 7.08576 62.0986 7.41446C61.8506 7.75191 61.4754 8.05429 60.9369 8.34354C60.3983 8.63718 59.6611 8.86946 58.9954 9.11925L57.6635 9.60132C57.5925 9.62762 57.5642 9.70214 57.5148 9.75472L57.529 9.75911C56.6431 10.0747 55.7362 10.3683 54.8719 10.7057C52.8738 11.4858 50.8475 12.2396 48.566 12.7217C48.2118 12.7962 47.6662 12.9934 46.8514 12.1388C46.0012 11.2492 45.8595 10.6005 46.4405 10.4296C47.8505 10.0133 49.3879 9.71966 50.564 9.07105C51.4213 8.59772 52.3637 8.20769 53.3345 7.84395L54.7868 7.30491L55.5092 7.03317L55.8707 6.89294L55.9627 6.85787C55.9911 6.84474 55.9769 6.84913 55.9911 6.84474L56.0194 6.82719C56.1045 6.77899 56.1897 6.73954 56.2816 6.7045C56.3667 6.66943 56.466 6.61246 56.4377 6.53794C56.3883 6.44593 56.2039 6.41964 56.0693 6.38896C56.0268 6.38018 55.9842 6.3758 55.9417 6.3758C55.9206 6.3758 55.9065 6.3758 55.8707 6.37141L55.545 6.27937L54.2272 5.92002C53.3487 5.68335 52.477 5.43794 51.6552 5.13992C50.231 4.62717 49.0053 3.89969 47.652 3.3168C47.3332 3.18095 47.0144 3.00565 46.3979 3.22039L46.3908 3.23354C46.3625 2.70325 45.2361 3.27738 45.3919 2.56301C45.2786 2.50166 45.1935 2.39647 45.0377 2.38333C44.3149 2.32197 44.4495 1.95822 45.5477 1.04228C45.7886 0.840683 46.0012 0.53829 46.2775 0.441875C47.2907 -0.0840277 47.4891 0.406814 47.9426 0.551436C50.1885 1.25264 52.3779 2.0152 54.5955 2.75584L56.6147 3.45265C56.9547 3.56659 57.2952 3.68054 57.6419 3.78135L59.1725 4.24152C59.8808 4.44312 60.8518 4.61842 61.1849 4.97778V4.98216Z" fill="#27187D"/>
</g>
<defs>
<clipPath id="clip0_172_46">
<rect width="62" height="13" fill="white" transform="translate(0.5)"/>
</clipPath>
</defs>
</svg>
